<mxfile host="app.diagrams.net" modified="2021-08-02T02:52:10.040Z" agent="5.0 (Windows NT 10.0; Win64; x64) AppleWebKit/537.36 (KHTML, like Gecko) Chrome/92.0.4515.107 Safari/537.36" etag="Jro2x1ohC7zW3WSilPXt" version="14.9.2" type="github">
  <diagram id="CnlPugVco9Rfhb4uANVK" name="Page-1">
    <mxGraphModel dx="1422" dy="762" grid="1" gridSize="10" guides="1" tooltips="1" connect="1" arrows="1" fold="1" page="1" pageScale="1" pageWidth="1200" pageHeight="1600" math="0" shadow="0">
      <root>
        <mxCell id="0" />
        <mxCell id="1" parent="0" />
        <mxCell id="QFxN7yIRBKlvJRT0lzvW-73" style="edgeStyle=orthogonalEdgeStyle;rounded=0;orthogonalLoop=1;jettySize=auto;html=1;entryX=1;entryY=0.5;entryDx=0;entryDy=0;" edge="1" parent="1" source="m7TE0_eAiULkqY9xw08K-10" target="QFxN7yIRBKlvJRT0lzvW-54">
          <mxGeometry relative="1" as="geometry" />
        </mxCell>
        <mxCell id="QFxN7yIRBKlvJRT0lzvW-81" style="edgeStyle=orthogonalEdgeStyle;rounded=0;orthogonalLoop=1;jettySize=auto;html=1;" edge="1" parent="1" source="m7TE0_eAiULkqY9xw08K-10" target="m7TE0_eAiULkqY9xw08K-45">
          <mxGeometry relative="1" as="geometry" />
        </mxCell>
        <mxCell id="m7TE0_eAiULkqY9xw08K-10" value="用户" style="swimlane;fontStyle=0;childLayout=stackLayout;horizontal=1;startSize=26;horizontalStack=0;resizeParent=1;resizeParentMax=0;resizeLast=0;collapsible=1;marginBottom=0;" parent="1" vertex="1">
          <mxGeometry x="540" y="160" width="140" height="338" as="geometry" />
        </mxCell>
        <mxCell id="m7TE0_eAiULkqY9xw08K-11" value="用户账号" style="text;strokeColor=none;fillColor=none;align=left;verticalAlign=top;spacingLeft=4;spacingRight=4;overflow=hidden;rotatable=0;points=[[0,0.5],[1,0.5]];portConstraint=eastwest;" parent="m7TE0_eAiULkqY9xw08K-10" vertex="1">
          <mxGeometry y="26" width="140" height="26" as="geometry" />
        </mxCell>
        <mxCell id="m7TE0_eAiULkqY9xw08K-82" value="用户姓名" style="text;strokeColor=none;fillColor=none;align=left;verticalAlign=top;spacingLeft=4;spacingRight=4;overflow=hidden;rotatable=0;points=[[0,0.5],[1,0.5]];portConstraint=eastwest;" parent="m7TE0_eAiULkqY9xw08K-10" vertex="1">
          <mxGeometry y="52" width="140" height="26" as="geometry" />
        </mxCell>
        <mxCell id="m7TE0_eAiULkqY9xw08K-12" value="密码" style="text;strokeColor=none;fillColor=none;align=left;verticalAlign=top;spacingLeft=4;spacingRight=4;overflow=hidden;rotatable=0;points=[[0,0.5],[1,0.5]];portConstraint=eastwest;" parent="m7TE0_eAiULkqY9xw08K-10" vertex="1">
          <mxGeometry y="78" width="140" height="26" as="geometry" />
        </mxCell>
        <mxCell id="QFxN7yIRBKlvJRT0lzvW-82" value="角色ID" style="text;strokeColor=none;fillColor=none;align=left;verticalAlign=top;spacingLeft=4;spacingRight=4;overflow=hidden;rotatable=0;points=[[0,0.5],[1,0.5]];portConstraint=eastwest;" vertex="1" parent="m7TE0_eAiULkqY9xw08K-10">
          <mxGeometry y="104" width="140" height="26" as="geometry" />
        </mxCell>
        <mxCell id="m7TE0_eAiULkqY9xw08K-69" value="是否接受分配" style="text;strokeColor=none;fillColor=none;align=left;verticalAlign=top;spacingLeft=4;spacingRight=4;overflow=hidden;rotatable=0;points=[[0,0.5],[1,0.5]];portConstraint=eastwest;" parent="m7TE0_eAiULkqY9xw08K-10" vertex="1">
          <mxGeometry y="130" width="140" height="26" as="geometry" />
        </mxCell>
        <mxCell id="m7TE0_eAiULkqY9xw08K-80" value="是否启用" style="text;strokeColor=none;fillColor=none;align=left;verticalAlign=top;spacingLeft=4;spacingRight=4;overflow=hidden;rotatable=0;points=[[0,0.5],[1,0.5]];portConstraint=eastwest;" parent="m7TE0_eAiULkqY9xw08K-10" vertex="1">
          <mxGeometry y="156" width="140" height="26" as="geometry" />
        </mxCell>
        <mxCell id="QFxN7yIRBKlvJRT0lzvW-50" value="省ID" style="text;strokeColor=none;fillColor=none;align=left;verticalAlign=top;spacingLeft=4;spacingRight=4;overflow=hidden;rotatable=0;points=[[0,0.5],[1,0.5]];portConstraint=eastwest;" vertex="1" parent="m7TE0_eAiULkqY9xw08K-10">
          <mxGeometry y="182" width="140" height="26" as="geometry" />
        </mxCell>
        <mxCell id="QFxN7yIRBKlvJRT0lzvW-51" value="市ID" style="text;strokeColor=none;fillColor=none;align=left;verticalAlign=top;spacingLeft=4;spacingRight=4;overflow=hidden;rotatable=0;points=[[0,0.5],[1,0.5]];portConstraint=eastwest;" vertex="1" parent="m7TE0_eAiULkqY9xw08K-10">
          <mxGeometry y="208" width="140" height="26" as="geometry" />
        </mxCell>
        <mxCell id="QFxN7yIRBKlvJRT0lzvW-52" value="区域ID" style="text;strokeColor=none;fillColor=none;align=left;verticalAlign=top;spacingLeft=4;spacingRight=4;overflow=hidden;rotatable=0;points=[[0,0.5],[1,0.5]];portConstraint=eastwest;" vertex="1" parent="m7TE0_eAiULkqY9xw08K-10">
          <mxGeometry y="234" width="140" height="26" as="geometry" />
        </mxCell>
        <mxCell id="QFxN7yIRBKlvJRT0lzvW-20" value="权限省ID：[]" style="text;strokeColor=none;fillColor=none;align=left;verticalAlign=top;spacingLeft=4;spacingRight=4;overflow=hidden;rotatable=0;points=[[0,0.5],[1,0.5]];portConstraint=eastwest;" vertex="1" parent="m7TE0_eAiULkqY9xw08K-10">
          <mxGeometry y="260" width="140" height="26" as="geometry" />
        </mxCell>
        <mxCell id="QFxN7yIRBKlvJRT0lzvW-21" value="权限市ID：[]" style="text;strokeColor=none;fillColor=none;align=left;verticalAlign=top;spacingLeft=4;spacingRight=4;overflow=hidden;rotatable=0;points=[[0,0.5],[1,0.5]];portConstraint=eastwest;" vertex="1" parent="m7TE0_eAiULkqY9xw08K-10">
          <mxGeometry y="286" width="140" height="26" as="geometry" />
        </mxCell>
        <mxCell id="m7TE0_eAiULkqY9xw08K-79" value="权限区ID：[]" style="text;strokeColor=none;fillColor=none;align=left;verticalAlign=top;spacingLeft=4;spacingRight=4;overflow=hidden;rotatable=0;points=[[0,0.5],[1,0.5]];portConstraint=eastwest;" parent="m7TE0_eAiULkqY9xw08K-10" vertex="1">
          <mxGeometry y="312" width="140" height="26" as="geometry" />
        </mxCell>
        <mxCell id="QFxN7yIRBKlvJRT0lzvW-74" style="edgeStyle=orthogonalEdgeStyle;rounded=0;orthogonalLoop=1;jettySize=auto;html=1;entryX=1;entryY=0.5;entryDx=0;entryDy=0;" edge="1" parent="1" source="m7TE0_eAiULkqY9xw08K-19" target="QFxN7yIRBKlvJRT0lzvW-53">
          <mxGeometry relative="1" as="geometry" />
        </mxCell>
        <mxCell id="m7TE0_eAiULkqY9xw08K-19" value="数据权限/地区" style="swimlane;fontStyle=0;childLayout=stackLayout;horizontal=1;startSize=26;horizontalStack=0;resizeParent=1;resizeParentMax=0;resizeLast=0;collapsible=1;marginBottom=0;" parent="1" vertex="1">
          <mxGeometry x="280" y="320" width="180" height="178" as="geometry" />
        </mxCell>
        <mxCell id="m7TE0_eAiULkqY9xw08K-20" value="角色ID" style="text;strokeColor=none;fillColor=none;align=left;verticalAlign=top;spacingLeft=4;spacingRight=4;overflow=hidden;rotatable=0;points=[[0,0.5],[1,0.5]];portConstraint=eastwest;" parent="m7TE0_eAiULkqY9xw08K-19" vertex="1">
          <mxGeometry y="26" width="180" height="26" as="geometry" />
        </mxCell>
        <mxCell id="m7TE0_eAiULkqY9xw08K-21" value="所属：0全国，1省，2市，&#xa;    3省+指定，4市+指定" style="text;strokeColor=none;fillColor=none;align=left;verticalAlign=top;spacingLeft=4;spacingRight=4;overflow=hidden;rotatable=0;points=[[0,0.5],[1,0.5]];portConstraint=eastwest;" parent="m7TE0_eAiULkqY9xw08K-19" vertex="1">
          <mxGeometry y="52" width="180" height="48" as="geometry" />
        </mxCell>
        <mxCell id="QFxN7yIRBKlvJRT0lzvW-30" value="省ID：[]" style="text;strokeColor=none;fillColor=none;align=left;verticalAlign=top;spacingLeft=4;spacingRight=4;overflow=hidden;rotatable=0;points=[[0,0.5],[1,0.5]];portConstraint=eastwest;" vertex="1" parent="m7TE0_eAiULkqY9xw08K-19">
          <mxGeometry y="100" width="180" height="26" as="geometry" />
        </mxCell>
        <mxCell id="QFxN7yIRBKlvJRT0lzvW-33" value="市ID：[]" style="text;strokeColor=none;fillColor=none;align=left;verticalAlign=top;spacingLeft=4;spacingRight=4;overflow=hidden;rotatable=0;points=[[0,0.5],[1,0.5]];portConstraint=eastwest;" vertex="1" parent="m7TE0_eAiULkqY9xw08K-19">
          <mxGeometry y="126" width="180" height="26" as="geometry" />
        </mxCell>
        <mxCell id="QFxN7yIRBKlvJRT0lzvW-31" value="区ID：[]" style="text;strokeColor=none;fillColor=none;align=left;verticalAlign=top;spacingLeft=4;spacingRight=4;overflow=hidden;rotatable=0;points=[[0,0.5],[1,0.5]];portConstraint=eastwest;" vertex="1" parent="m7TE0_eAiULkqY9xw08K-19">
          <mxGeometry y="152" width="180" height="26" as="geometry" />
        </mxCell>
        <mxCell id="m7TE0_eAiULkqY9xw08K-64" style="edgeStyle=orthogonalEdgeStyle;rounded=0;orthogonalLoop=1;jettySize=auto;html=1;startArrow=none;" parent="1" source="m7TE0_eAiULkqY9xw08K-78" target="m7TE0_eAiULkqY9xw08K-19" edge="1">
          <mxGeometry relative="1" as="geometry">
            <Array as="points">
              <mxPoint x="360" y="449" />
            </Array>
            <mxPoint x="370" y="433" as="sourcePoint" />
          </mxGeometry>
        </mxCell>
        <mxCell id="m7TE0_eAiULkqY9xw08K-45" value="角色" style="swimlane;fontStyle=0;childLayout=stackLayout;horizontal=1;startSize=26;horizontalStack=0;resizeParent=1;resizeParentMax=0;resizeLast=0;collapsible=1;marginBottom=0;" parent="1" vertex="1">
          <mxGeometry x="300" y="180" width="140" height="104" as="geometry" />
        </mxCell>
        <mxCell id="m7TE0_eAiULkqY9xw08K-47" value="角色名称：超级管理员、系统管理员" style="text;strokeColor=none;fillColor=none;align=left;verticalAlign=top;spacingLeft=4;spacingRight=4;overflow=hidden;rotatable=0;points=[[0,0.5],[1,0.5]];portConstraint=eastwest;" parent="m7TE0_eAiULkqY9xw08K-45" vertex="1">
          <mxGeometry y="26" width="140" height="26" as="geometry" />
        </mxCell>
        <mxCell id="m7TE0_eAiULkqY9xw08K-51" value="是否启用" style="text;strokeColor=none;fillColor=none;align=left;verticalAlign=top;spacingLeft=4;spacingRight=4;overflow=hidden;rotatable=0;points=[[0,0.5],[1,0.5]];portConstraint=eastwest;" parent="m7TE0_eAiULkqY9xw08K-45" vertex="1">
          <mxGeometry y="52" width="140" height="26" as="geometry" />
        </mxCell>
        <mxCell id="m7TE0_eAiULkqY9xw08K-78" value="备注" style="text;strokeColor=none;fillColor=none;align=left;verticalAlign=top;spacingLeft=4;spacingRight=4;overflow=hidden;rotatable=0;points=[[0,0.5],[1,0.5]];portConstraint=eastwest;" parent="m7TE0_eAiULkqY9xw08K-45" vertex="1">
          <mxGeometry y="78" width="140" height="26" as="geometry" />
        </mxCell>
        <mxCell id="m7TE0_eAiULkqY9xw08K-54" value="功能权限/模块" style="swimlane;fontStyle=0;childLayout=stackLayout;horizontal=1;startSize=26;horizontalStack=0;resizeParent=1;resizeParentMax=0;resizeLast=0;collapsible=1;marginBottom=0;" parent="1" vertex="1">
          <mxGeometry x="50" y="20" width="150" height="156" as="geometry">
            <mxRectangle x="50" y="20" width="110" height="26" as="alternateBounds" />
          </mxGeometry>
        </mxCell>
        <mxCell id="m7TE0_eAiULkqY9xw08K-56" value="code" style="text;strokeColor=none;fillColor=none;align=left;verticalAlign=top;spacingLeft=4;spacingRight=4;overflow=hidden;rotatable=0;points=[[0,0.5],[1,0.5]];portConstraint=eastwest;" parent="m7TE0_eAiULkqY9xw08K-54" vertex="1">
          <mxGeometry y="26" width="150" height="26" as="geometry" />
        </mxCell>
        <mxCell id="QFxN7yIRBKlvJRT0lzvW-84" value="功能：预警工作台、可视化大屏" style="text;strokeColor=none;fillColor=none;align=left;verticalAlign=top;spacingLeft=4;spacingRight=4;overflow=hidden;rotatable=0;points=[[0,0.5],[1,0.5]];portConstraint=eastwest;" vertex="1" parent="m7TE0_eAiULkqY9xw08K-54">
          <mxGeometry y="52" width="150" height="26" as="geometry" />
        </mxCell>
        <mxCell id="m7TE0_eAiULkqY9xw08K-57" value="是否启用" style="text;strokeColor=none;fillColor=none;align=left;verticalAlign=top;spacingLeft=4;spacingRight=4;overflow=hidden;rotatable=0;points=[[0,0.5],[1,0.5]];portConstraint=eastwest;" parent="m7TE0_eAiULkqY9xw08K-54" vertex="1">
          <mxGeometry y="78" width="150" height="26" as="geometry" />
        </mxCell>
        <mxCell id="m7TE0_eAiULkqY9xw08K-58" value="说明" style="text;strokeColor=none;fillColor=none;align=left;verticalAlign=top;spacingLeft=4;spacingRight=4;overflow=hidden;rotatable=0;points=[[0,0.5],[1,0.5]];portConstraint=eastwest;" parent="m7TE0_eAiULkqY9xw08K-54" vertex="1">
          <mxGeometry y="104" width="150" height="26" as="geometry" />
        </mxCell>
        <mxCell id="QFxN7yIRBKlvJRT0lzvW-83" value="level层级" style="text;strokeColor=none;fillColor=none;align=left;verticalAlign=top;spacingLeft=4;spacingRight=4;overflow=hidden;rotatable=0;points=[[0,0.5],[1,0.5]];portConstraint=eastwest;" vertex="1" parent="m7TE0_eAiULkqY9xw08K-54">
          <mxGeometry y="130" width="150" height="26" as="geometry" />
        </mxCell>
        <mxCell id="m7TE0_eAiULkqY9xw08K-65" value="省市区" style="swimlane;fontStyle=0;childLayout=stackLayout;horizontal=1;startSize=26;horizontalStack=0;resizeParent=1;resizeParentMax=0;resizeLast=0;collapsible=1;marginBottom=0;fillColor=none;" parent="1" vertex="1">
          <mxGeometry x="50" y="400" width="140" height="130" as="geometry" />
        </mxCell>
        <mxCell id="m7TE0_eAiULkqY9xw08K-66" value="ID" style="text;strokeColor=none;fillColor=none;align=left;verticalAlign=top;spacingLeft=4;spacingRight=4;overflow=hidden;rotatable=0;points=[[0,0.5],[1,0.5]];portConstraint=eastwest;" parent="m7TE0_eAiULkqY9xw08K-65" vertex="1">
          <mxGeometry y="26" width="140" height="26" as="geometry" />
        </mxCell>
        <mxCell id="QFxN7yIRBKlvJRT0lzvW-1" value="省" style="text;strokeColor=none;fillColor=none;align=left;verticalAlign=top;spacingLeft=4;spacingRight=4;overflow=hidden;rotatable=0;points=[[0,0.5],[1,0.5]];portConstraint=eastwest;" vertex="1" parent="m7TE0_eAiULkqY9xw08K-65">
          <mxGeometry y="52" width="140" height="26" as="geometry" />
        </mxCell>
        <mxCell id="QFxN7yIRBKlvJRT0lzvW-53" value="市" style="text;strokeColor=none;fillColor=none;align=left;verticalAlign=top;spacingLeft=4;spacingRight=4;overflow=hidden;rotatable=0;points=[[0,0.5],[1,0.5]];portConstraint=eastwest;" vertex="1" parent="m7TE0_eAiULkqY9xw08K-65">
          <mxGeometry y="78" width="140" height="26" as="geometry" />
        </mxCell>
        <mxCell id="QFxN7yIRBKlvJRT0lzvW-54" value="区" style="text;strokeColor=none;fillColor=none;align=left;verticalAlign=top;spacingLeft=4;spacingRight=4;overflow=hidden;rotatable=0;points=[[0,0.5],[1,0.5]];portConstraint=eastwest;" vertex="1" parent="m7TE0_eAiULkqY9xw08K-65">
          <mxGeometry y="104" width="140" height="26" as="geometry" />
        </mxCell>
        <mxCell id="m7TE0_eAiULkqY9xw08K-89" style="edgeStyle=orthogonalEdgeStyle;rounded=0;orthogonalLoop=1;jettySize=auto;html=1;" parent="1" source="m7TE0_eAiULkqY9xw08K-70" target="m7TE0_eAiULkqY9xw08K-54" edge="1">
          <mxGeometry relative="1" as="geometry">
            <Array as="points">
              <mxPoint x="160" y="56" />
              <mxPoint x="160" y="90" />
              <mxPoint x="110" y="90" />
            </Array>
          </mxGeometry>
        </mxCell>
        <mxCell id="m7TE0_eAiULkqY9xw08K-70" value="中间表" style="swimlane;fontStyle=0;childLayout=stackLayout;horizontal=1;startSize=26;horizontalStack=0;resizeParent=1;resizeParentMax=0;resizeLast=0;collapsible=1;marginBottom=0;fillColor=none;" parent="1" vertex="1">
          <mxGeometry x="50" y="220" width="140" height="78" as="geometry" />
        </mxCell>
        <mxCell id="m7TE0_eAiULkqY9xw08K-71" value="角色ID" style="text;strokeColor=none;fillColor=none;align=left;verticalAlign=top;spacingLeft=4;spacingRight=4;overflow=hidden;rotatable=0;points=[[0,0.5],[1,0.5]];portConstraint=eastwest;" parent="m7TE0_eAiULkqY9xw08K-70" vertex="1">
          <mxGeometry y="26" width="140" height="26" as="geometry" />
        </mxCell>
        <mxCell id="m7TE0_eAiULkqY9xw08K-90" value="功能ID" style="text;strokeColor=none;fillColor=none;align=left;verticalAlign=top;spacingLeft=4;spacingRight=4;overflow=hidden;rotatable=0;points=[[0,0.5],[1,0.5]];portConstraint=eastwest;" parent="m7TE0_eAiULkqY9xw08K-70" vertex="1">
          <mxGeometry y="52" width="140" height="26" as="geometry" />
        </mxCell>
        <mxCell id="m7TE0_eAiULkqY9xw08K-91" style="edgeStyle=orthogonalEdgeStyle;rounded=0;orthogonalLoop=1;jettySize=auto;html=1;entryX=0.007;entryY=0.808;entryDx=0;entryDy=0;entryPerimeter=0;" parent="1" source="m7TE0_eAiULkqY9xw08K-71" target="m7TE0_eAiULkqY9xw08K-47" edge="1">
          <mxGeometry relative="1" as="geometry" />
        </mxCell>
        <mxCell id="m7TE0_eAiULkqY9xw08K-94" value="权限" style="swimlane;fontStyle=0;childLayout=stackLayout;horizontal=1;startSize=26;horizontalStack=0;resizeParent=1;resizeParentMax=0;resizeLast=0;collapsible=1;marginBottom=0;fillColor=none;" parent="1" vertex="1">
          <mxGeometry x="670" y="620" width="140" height="130" as="geometry" />
        </mxCell>
        <mxCell id="m7TE0_eAiULkqY9xw08K-98" value="角色" style="text;strokeColor=none;fillColor=none;align=left;verticalAlign=top;spacingLeft=4;spacingRight=4;overflow=hidden;rotatable=0;points=[[0,0.5],[1,0.5]];portConstraint=eastwest;" parent="m7TE0_eAiULkqY9xw08K-94" vertex="1">
          <mxGeometry y="26" width="140" height="26" as="geometry" />
        </mxCell>
        <mxCell id="m7TE0_eAiULkqY9xw08K-96" value="用户" style="text;strokeColor=none;fillColor=none;align=left;verticalAlign=top;spacingLeft=4;spacingRight=4;overflow=hidden;rotatable=0;points=[[0,0.5],[1,0.5]];portConstraint=eastwest;" parent="m7TE0_eAiULkqY9xw08K-94" vertex="1">
          <mxGeometry y="52" width="140" height="26" as="geometry" />
        </mxCell>
        <mxCell id="m7TE0_eAiULkqY9xw08K-95" value="功能权限ID" style="text;strokeColor=none;fillColor=none;align=left;verticalAlign=top;spacingLeft=4;spacingRight=4;overflow=hidden;rotatable=0;points=[[0,0.5],[1,0.5]];portConstraint=eastwest;" parent="m7TE0_eAiULkqY9xw08K-94" vertex="1">
          <mxGeometry y="78" width="140" height="26" as="geometry" />
        </mxCell>
        <mxCell id="m7TE0_eAiULkqY9xw08K-97" value="数据权限ID" style="text;strokeColor=none;fillColor=none;align=left;verticalAlign=top;spacingLeft=4;spacingRight=4;overflow=hidden;rotatable=0;points=[[0,0.5],[1,0.5]];portConstraint=eastwest;" parent="m7TE0_eAiULkqY9xw08K-94" vertex="1">
          <mxGeometry y="104" width="140" height="26" as="geometry" />
        </mxCell>
        <mxCell id="QFxN7yIRBKlvJRT0lzvW-56" value="用户数据权限" style="swimlane;fontStyle=0;childLayout=stackLayout;horizontal=1;startSize=26;horizontalStack=0;resizeParent=1;resizeParentMax=0;resizeLast=0;collapsible=1;marginBottom=0;" vertex="1" parent="1">
          <mxGeometry x="490" y="607" width="140" height="156" as="geometry" />
        </mxCell>
        <mxCell id="QFxN7yIRBKlvJRT0lzvW-58" value="Item 2" style="text;strokeColor=none;fillColor=none;align=left;verticalAlign=top;spacingLeft=4;spacingRight=4;overflow=hidden;rotatable=0;points=[[0,0.5],[1,0.5]];portConstraint=eastwest;" vertex="1" parent="QFxN7yIRBKlvJRT0lzvW-56">
          <mxGeometry y="26" width="140" height="26" as="geometry" />
        </mxCell>
        <mxCell id="QFxN7yIRBKlvJRT0lzvW-59" value="Item 3" style="text;strokeColor=none;fillColor=none;align=left;verticalAlign=top;spacingLeft=4;spacingRight=4;overflow=hidden;rotatable=0;points=[[0,0.5],[1,0.5]];portConstraint=eastwest;" vertex="1" parent="QFxN7yIRBKlvJRT0lzvW-56">
          <mxGeometry y="52" width="140" height="26" as="geometry" />
        </mxCell>
        <mxCell id="QFxN7yIRBKlvJRT0lzvW-60" value="权限省ID：[]" style="text;strokeColor=none;fillColor=none;align=left;verticalAlign=top;spacingLeft=4;spacingRight=4;overflow=hidden;rotatable=0;points=[[0,0.5],[1,0.5]];portConstraint=eastwest;" vertex="1" parent="QFxN7yIRBKlvJRT0lzvW-56">
          <mxGeometry y="78" width="140" height="26" as="geometry" />
        </mxCell>
        <mxCell id="QFxN7yIRBKlvJRT0lzvW-61" value="权限市ID：[]" style="text;strokeColor=none;fillColor=none;align=left;verticalAlign=top;spacingLeft=4;spacingRight=4;overflow=hidden;rotatable=0;points=[[0,0.5],[1,0.5]];portConstraint=eastwest;" vertex="1" parent="QFxN7yIRBKlvJRT0lzvW-56">
          <mxGeometry y="104" width="140" height="26" as="geometry" />
        </mxCell>
        <mxCell id="QFxN7yIRBKlvJRT0lzvW-62" value="权限区域ID：[]" style="text;strokeColor=none;fillColor=none;align=left;verticalAlign=top;spacingLeft=4;spacingRight=4;overflow=hidden;rotatable=0;points=[[0,0.5],[1,0.5]];portConstraint=eastwest;" vertex="1" parent="QFxN7yIRBKlvJRT0lzvW-56">
          <mxGeometry y="130" width="140" height="26" as="geometry" />
        </mxCell>
        <mxCell id="QFxN7yIRBKlvJRT0lzvW-71" value="角色与数据权限一对一&lt;br&gt;角色与功能权限多对多" style="html=1;dropTarget=0;" vertex="1" parent="1">
          <mxGeometry x="120" y="850" width="180" height="90" as="geometry" />
        </mxCell>
        <mxCell id="QFxN7yIRBKlvJRT0lzvW-72" value="" style="shape=module;jettyWidth=8;jettyHeight=4;" vertex="1" parent="QFxN7yIRBKlvJRT0lzvW-71">
          <mxGeometry x="1" width="20" height="20" relative="1" as="geometry">
            <mxPoint x="-27" y="7" as="offset" />
          </mxGeometry>
        </mxCell>
        <mxCell id="QFxN7yIRBKlvJRT0lzvW-75" value="数据" style="swimlane;fontStyle=0;childLayout=stackLayout;horizontal=1;startSize=26;horizontalStack=0;resizeParent=1;resizeParentMax=0;resizeLast=0;collapsible=1;marginBottom=0;fillColor=none;" vertex="1" parent="1">
          <mxGeometry x="720" y="270" width="140" height="52" as="geometry" />
        </mxCell>
        <mxCell id="QFxN7yIRBKlvJRT0lzvW-77" value="数据ID" style="text;strokeColor=none;fillColor=none;align=left;verticalAlign=top;spacingLeft=4;spacingRight=4;overflow=hidden;rotatable=0;points=[[0,0.5],[1,0.5]];portConstraint=eastwest;" vertex="1" parent="QFxN7yIRBKlvJRT0lzvW-75">
          <mxGeometry y="26" width="140" height="26" as="geometry" />
        </mxCell>
      </root>
    </mxGraphModel>
  </diagram>
</mxfile>
